<?xml version="1.0" standalone="no"?>
<!DOCTYPE svg PUBLIC "-//W3C//DTD SVG 20010904//EN"
 "http://www.w3.org/TR/2001/REC-SVG-20010904/DTD/svg10.dtd">
<svg version="1.0" xmlns="http://www.w3.org/2000/svg"
 width="2560.000000pt" height="300.000000pt" viewBox="0 0 2560.000000 300.000000"
 preserveAspectRatio="xMidYMid meet">
<metadata>
Created by potrace 1.16, written by Peter Selinger 2001-2019
</metadata>
<g transform="translate(0.000000,300.000000) scale(0.100000,-0.100000)"
fill="#000000" stroke="none">
<path d="M4320 2661 c-36 -9 -98 -29 -139 -46 -64 -26 -87 -42 -157 -114 -92
-93 -125 -157 -147 -281 -16 -95 -16 -1363 0 -1445 25 -119 79 -234 130 -275
168 -135 212 -159 319 -179 85 -16 16911 -16 16998 0 100 18 205 80 313 187
54 52 74 81 92 127 49 130 51 165 51 859 0 612 -5 755 -30 811 -40 95 -63 129
-124 194 -50 52 -87 81 -126 98 -30 13 -68 30 -85 38 -16 7 -61 21 -100 29
-63 15 -877 16 -8500 15 -7767 -1 -8435 -3 -8495 -18z m9312 -701 c12 -15 18
-39 18 -76 0 -50 -2 -55 -37 -79 -43 -28 -81 -32 -123 -10 -40 20 -60 53 -60
95 0 77 33 101 129 96 42 -2 58 -8 73 -26z m-2006 -52 c15 -15 17 -47 16 -302
-2 -265 -1 -286 16 -287 9 -1 69 0 132 1 103 1 118 0 142 -19 14 -12 29 -21
32 -21 11 0 6 57 -8 113 -12 48 -12 62 4 138 27 122 29 125 68 152 109 72 109
72 225 70 88 -1 113 -5 140 -22 47 -29 97 -89 120 -144 11 -26 25 -46 31 -44
6 2 16 24 22 49 18 68 30 86 92 125 l57 37 190 -3 c154 -1 193 -4 205 -17 13
-12 15 -61 15 -313 l0 -298 -37 -56 c-24 -35 -58 -69 -95 -94 l-58 -38 -115 0
-115 0 -57 37 c-37 24 -60 47 -64 63 -8 34 23 86 63 104 l32 14 -45 41 c-33
30 -50 56 -63 95 -10 30 -22 56 -28 58 -6 2 -18 -15 -27 -38 -23 -58 -62 -105
-115 -142 -42 -28 -54 -32 -138 -35 -87 -4 -95 -3 -157 27 -36 18 -78 47 -95
66 -16 18 -32 31 -35 28 -3 -4 -6 -23 -6 -44 0 -29 -6 -42 -26 -58 -25 -20
-39 -21 -255 -21 -230 0 -271 5 -283 35 -8 21 -9 707 0 728 9 25 53 37 131 34
52 -2 77 -7 89 -19z m2289 -161 c195 8 215 6 253 -24 21 -17 47 -47 59 -69 22
-37 23 -50 23 -266 l0 -228 -25 -16 c-19 -12 -42 -15 -96 -12 -101 5 -99 2
-99 226 1 205 -1 215 -59 210 -56 -5 -61 -25 -54 -224 6 -168 6 -171 -17 -194
-20 -20 -30 -22 -97 -18 -60 3 -78 7 -89 23 -19 26 -21 552 -1 578 14 19 65
27 127 19 25 -3 59 -5 75 -5z m-275 -16 c6 -12 10 -123 10 -290 0 -258 -1
-272 -20 -291 -15 -15 -33 -20 -77 -20 -75 0 -101 8 -108 31 -3 10 -6 141 -7
290 0 319 -8 299 114 299 66 0 79 -3 88 -19z"/>
<path d="M12194 1559 c-15 -16 -20 -39 -22 -103 -3 -84 7 -119 40 -140 27 -17
71 4 81 39 5 17 13 45 19 63 14 47 -16 140 -49 153 -36 13 -48 11 -69 -12z"/>
<path d="M12802 1563 c-11 -10 -27 -39 -37 -64 -15 -43 -15 -49 0 -100 27 -85
72 -112 116 -68 19 19 20 30 17 121 -2 85 -6 102 -22 114 -26 19 -50 18 -74
-3z"/>
</g>
</svg>
