<svg id="svg" version="1.1" xmlns="http://www.w3.org/2000/svg" xmlns:xlink="http://www.w3.org/1999/xlink" width="400" height="400" viewBox="0, 0, 400,400"><g id="svgg"><path id="path0" d="M78.914 258.600 C 78.917 259.700,78.995 260.103,79.087 259.495 C 79.179 258.886,79.177 257.986,79.082 257.495 C 78.987 257.003,78.911 257.500,78.914 258.600 M195.305 276.287 C 195.914 276.379,196.814 276.377,197.305 276.282 C 197.797 276.187,197.300 276.111,196.200 276.114 C 195.100 276.117,194.697 276.195,195.305 276.287 M203.105 276.283 C 203.602 276.379,204.322 276.375,204.705 276.275 C 205.087 276.175,204.680 276.096,203.800 276.101 C 202.920 276.105,202.607 276.187,203.105 276.283 M54.868 283.800 C 54.862 284.240,55.011 284.960,55.200 285.400 C 55.638 286.419,55.638 285.368,55.200 284.000 C 54.943 283.196,54.877 283.157,54.868 283.800 M133.624 284.869 C 133.169 285.038,131.158 285.272,129.157 285.390 C 127.155 285.507,125.333 285.718,125.106 285.858 C 124.880 285.998,124.044 286.164,123.248 286.227 C 121.044 286.403,118.756 286.780,118.343 287.035 C 118.140 287.161,116.947 287.352,115.693 287.459 C 114.439 287.567,113.310 287.822,113.184 288.026 C 112.985 288.349,111.583 288.608,108.103 288.968 C 107.609 289.019,107.084 289.182,106.936 289.330 C 106.788 289.479,106.172 289.600,105.567 289.600 C 104.962 289.600,104.407 289.771,104.333 289.980 C 104.260 290.188,103.232 290.469,102.048 290.603 C 100.864 290.737,99.644 291.099,99.336 291.407 C 99.029 291.714,98.512 291.864,98.188 291.740 C 97.865 291.616,97.600 291.689,97.600 291.903 C 97.600 292.117,96.295 292.608,94.700 292.994 C 93.105 293.380,91.710 293.828,91.600 293.990 C 90.560 295.522,87.965 294.709,86.846 292.500 C 85.788 290.415,85.364 290.261,86.202 292.267 C 87.387 295.103,91.408 300.619,94.786 304.043 C 105.565 314.967,116.904 319.207,139.800 320.875 C 149.342 321.571,252.589 321.595,259.600 320.903 L 264.200 320.449 258.900 320.639 C 255.894 320.747,253.600 320.674,253.600 320.470 C 253.600 320.273,252.759 319.681,251.730 319.156 C 250.702 318.630,249.172 317.525,248.330 316.700 C 247.489 315.875,246.612 315.200,246.383 315.200 C 246.153 315.200,245.493 314.762,244.915 314.226 C 244.338 313.691,243.430 313.144,242.899 313.010 C 242.367 312.877,241.533 312.337,241.046 311.811 C 240.558 311.286,239.629 310.724,238.980 310.563 C 238.331 310.402,237.565 309.940,237.277 309.535 C 236.990 309.131,236.508 308.800,236.206 308.800 C 235.904 308.800,235.419 308.574,235.129 308.297 C 234.838 308.021,233.837 307.436,232.905 306.997 C 231.972 306.559,231.207 306.088,231.205 305.950 C 231.202 305.813,230.705 305.600,230.100 305.477 C 229.495 305.355,228.629 304.928,228.176 304.527 C 226.986 303.476,224.857 302.400,223.968 302.400 C 223.545 302.400,223.200 302.253,223.200 302.074 C 223.200 301.676,220.599 300.400,219.786 300.400 C 219.464 300.400,219.200 300.220,219.200 300.000 C 219.200 299.780,218.928 299.600,218.595 299.600 C 218.004 299.600,217.566 299.427,215.684 298.449 C 215.180 298.187,214.614 298.068,214.426 298.184 C 214.238 298.300,213.981 298.126,213.854 297.798 C 213.728 297.469,213.425 297.200,213.181 297.200 C 212.936 297.200,211.626 296.779,210.268 296.265 C 208.911 295.751,207.087 295.096,206.215 294.808 C 205.343 294.521,204.385 294.042,204.086 293.743 C 203.787 293.444,202.936 293.200,202.195 293.200 C 201.454 293.200,200.736 293.020,200.600 292.800 C 200.464 292.580,199.913 292.400,199.376 292.400 C 198.839 292.400,198.400 292.240,198.400 292.044 C 198.400 291.848,197.815 291.590,197.100 291.472 C 194.273 291.002,191.389 290.253,191.174 289.932 C 191.050 289.746,190.150 289.530,189.174 289.452 C 188.198 289.374,185.870 288.937,184.000 288.480 C 178.919 287.240,176.019 286.701,173.853 286.593 C 172.782 286.539,171.769 286.274,171.602 286.003 C 171.367 285.622,171.260 285.620,171.136 285.991 C 171.015 286.354,170.392 286.304,168.628 285.791 C 165.161 284.783,135.937 284.014,133.624 284.869 M84.607 288.679 C 85.207 290.114,85.600 290.762,85.600 290.316 C 85.600 289.884,84.385 287.200,84.189 287.200 C 84.079 287.200,84.267 287.866,84.607 288.679 M58.635 296.800 C 58.781 297.350,59.154 298.250,59.464 298.800 L 60.029 299.800 59.765 298.800 C 59.619 298.250,59.246 297.350,58.936 296.800 L 58.371 295.800 58.635 296.800 M60.418 300.913 C 60.383 301.524,61.614 304.119,61.834 303.899 C 61.957 303.776,61.693 302.984,61.247 302.138 C 60.800 301.292,60.427 300.741,60.418 300.913 M62.452 305.400 C 62.454 305.620,62.597 306.160,62.769 306.600 C 63.161 307.603,61.444 308.990,59.319 309.389 C 58.530 309.537,57.644 309.898,57.350 310.192 C 57.056 310.486,56.089 310.850,55.200 311.000 C 54.311 311.150,53.363 311.492,53.092 311.760 C 52.821 312.028,51.477 312.597,50.103 313.024 C 48.730 313.451,47.605 313.917,47.603 314.060 C 47.602 314.203,46.700 314.643,45.600 315.039 C 44.500 315.434,43.600 315.884,43.600 316.039 C 43.600 316.193,42.700 316.643,41.600 317.039 C 40.500 317.434,39.600 317.878,39.600 318.025 C 39.600 318.171,38.766 318.610,37.746 318.999 C 36.727 319.389,35.557 320.043,35.146 320.454 C 34.736 320.864,34.139 321.200,33.820 321.200 C 33.501 321.200,33.096 321.425,32.920 321.700 C 32.744 321.975,31.880 322.558,31.000 322.996 C 30.120 323.434,29.256 324.019,29.080 324.296 C 28.904 324.573,28.533 324.800,28.256 324.800 C 27.978 324.800,27.402 325.124,26.975 325.520 C 26.549 325.916,25.570 326.591,24.800 327.020 C 24.030 327.449,23.165 328.115,22.877 328.500 C 22.590 328.885,22.101 329.200,21.791 329.200 C 21.482 329.200,21.035 329.560,20.800 330.000 C 20.565 330.440,20.110 330.800,19.789 330.800 C 19.469 330.800,18.982 331.160,18.707 331.600 C 18.432 332.040,18.026 332.401,17.804 332.402 C 17.424 332.404,16.866 332.857,12.400 336.793 C 6.284 342.183,6.141 342.487,8.195 345.774 C 8.479 346.228,8.932 347.296,9.202 348.147 C 10.633 352.655,16.145 361.838,21.200 368.136 C 25.242 373.171,37.182 383.677,40.977 385.538 C 41.649 385.867,42.290 386.269,42.400 386.430 C 42.510 386.591,44.760 387.817,47.400 389.154 C 50.040 390.491,52.427 391.777,52.705 392.013 C 52.983 392.248,53.375 392.339,53.577 392.214 C 53.779 392.089,54.043 392.145,54.162 392.339 C 54.282 392.532,55.194 392.918,56.190 393.197 C 57.185 393.476,58.000 393.880,58.000 394.095 C 58.000 394.310,58.264 394.384,58.587 394.260 C 58.910 394.136,59.265 394.181,59.375 394.360 C 59.486 394.539,60.662 394.916,61.988 395.198 C 63.315 395.479,64.400 395.886,64.400 396.101 C 64.400 396.317,64.854 396.406,65.410 396.300 C 65.965 396.194,66.504 396.244,66.607 396.412 C 66.711 396.579,68.372 396.947,70.298 397.228 C 72.224 397.510,73.890 397.861,74.000 398.008 C 74.353 398.479,83.111 399.206,93.600 399.634 C 104.367 400.074,293.196 399.840,299.547 399.379 L 302.895 399.136 302.621 397.076 C 302.471 395.942,302.217 394.922,302.057 394.808 C 301.898 394.693,301.444 393.205,301.049 391.500 C 300.655 389.795,300.164 388.400,299.958 388.400 C 299.753 388.400,299.698 387.950,299.836 387.400 C 299.996 386.761,299.918 386.400,299.620 386.400 C 299.363 386.400,299.259 386.228,299.389 386.018 C 299.519 385.807,299.350 384.975,299.013 384.169 C 298.676 383.362,298.400 382.364,298.400 381.951 C 298.400 381.538,298.220 381.200,298.000 381.200 C 297.780 381.200,297.600 380.990,297.600 380.734 C 297.600 379.799,294.217 371.391,293.716 371.080 C 293.432 370.904,293.200 370.499,293.200 370.180 C 293.200 369.861,292.885 369.281,292.500 368.892 C 292.115 368.502,291.459 367.161,291.042 365.912 C 290.625 364.663,290.040 363.547,289.742 363.433 C 289.444 363.319,289.200 362.970,289.200 362.658 C 289.200 361.620,286.607 357.365,285.782 357.048 C 285.462 356.926,285.200 356.468,285.200 356.032 C 285.200 355.596,284.975 355.096,284.700 354.920 C 284.088 354.528,283.329 353.356,282.766 351.932 C 282.534 351.345,282.087 350.765,281.772 350.645 C 281.457 350.524,281.200 350.160,281.200 349.835 C 281.200 349.511,280.869 349.010,280.463 348.723 C 279.168 347.803,278.623 346.400,279.562 346.400 C 279.997 346.400,280.476 346.201,280.626 345.957 C 280.814 345.654,280.537 345.590,279.750 345.755 C 265.161 348.804,153.648 349.713,129.600 346.978 C 99.404 343.544,77.824 330.882,64.876 309.000 C 62.648 305.235,62.446 304.935,62.452 305.400 M283.664 344.873 C 282.709 345.087,282.008 345.341,282.106 345.439 C 282.312 345.646,286.400 344.815,286.400 344.567 C 286.400 344.339,285.711 344.416,283.664 344.873 " stroke="none" fill="#fcae04" fill-rule="evenodd"></path><path id="path1" d="M93.900 219.468 C 91.315 219.554,89.200 219.773,89.200 219.954 C 89.200 220.135,86.909 220.410,84.109 220.566 C 81.309 220.722,78.929 220.937,78.821 221.046 C 78.379 221.488,78.335 245.095,78.763 252.758 C 79.989 274.745,81.373 281.742,86.489 291.800 C 87.965 294.701,90.406 295.748,91.600 293.990 C 91.710 293.828,93.105 293.380,94.700 292.994 C 96.295 292.608,97.600 292.117,97.600 291.903 C 97.600 291.689,97.865 291.616,98.188 291.740 C 98.512 291.864,99.029 291.714,99.336 291.407 C 99.644 291.099,100.864 290.737,102.048 290.603 C 103.232 290.469,104.260 290.188,104.333 289.980 C 104.407 289.771,104.962 289.600,105.567 289.600 C 106.172 289.600,106.788 289.479,106.936 289.330 C 107.084 289.182,107.609 289.019,108.103 288.968 C 111.583 288.608,112.985 288.349,113.184 288.026 C 113.310 287.822,114.439 287.567,115.693 287.459 C 116.947 287.352,118.140 287.161,118.343 287.035 C 118.756 286.780,121.044 286.403,123.248 286.227 C 124.044 286.164,124.880 285.998,125.106 285.858 C 125.333 285.718,127.159 285.507,129.166 285.389 C 131.173 285.271,133.216 285.031,133.707 284.855 C 136.093 284.002,165.129 284.774,168.599 285.783 C 170.349 286.291,170.990 286.340,171.210 285.983 C 171.433 285.622,171.542 285.627,171.667 286.002 C 171.761 286.284,172.678 286.536,173.816 286.592 C 176.016 286.700,178.894 287.234,184.000 288.480 C 185.870 288.937,188.198 289.374,189.174 289.452 C 190.150 289.530,191.050 289.746,191.174 289.932 C 191.389 290.253,194.273 291.002,197.100 291.472 C 197.815 291.590,198.400 291.848,198.400 292.044 C 198.400 292.240,198.839 292.400,199.376 292.400 C 199.913 292.400,200.464 292.580,200.600 292.800 C 200.736 293.020,201.454 293.200,202.195 293.200 C 202.936 293.200,203.787 293.444,204.086 293.743 C 204.385 294.042,205.343 294.521,206.215 294.808 C 207.087 295.096,208.880 295.727,210.200 296.211 C 211.520 296.695,212.915 297.200,213.300 297.333 C 213.685 297.466,214.000 297.771,214.000 298.011 C 214.000 298.251,214.173 298.340,214.384 298.210 C 214.595 298.080,215.180 298.187,215.684 298.449 C 217.566 299.427,218.004 299.600,218.595 299.600 C 218.928 299.600,219.200 299.780,219.200 300.000 C 219.200 300.220,219.464 300.400,219.786 300.400 C 220.599 300.400,223.200 301.676,223.200 302.074 C 223.200 302.253,223.545 302.400,223.968 302.400 C 224.857 302.400,226.986 303.476,228.176 304.527 C 228.629 304.928,229.495 305.355,230.100 305.477 C 230.705 305.600,231.202 305.813,231.205 305.950 C 231.207 306.088,231.972 306.559,232.905 306.997 C 233.837 307.436,234.838 308.021,235.129 308.297 C 235.419 308.574,235.904 308.800,236.206 308.800 C 236.508 308.800,236.990 309.131,237.277 309.535 C 237.565 309.940,238.331 310.402,238.980 310.563 C 239.629 310.724,240.558 311.286,241.046 311.811 C 241.533 312.337,242.367 312.877,242.899 313.010 C 243.430 313.144,244.338 313.691,244.915 314.226 C 245.493 314.762,246.153 315.200,246.383 315.200 C 246.612 315.200,247.483 315.883,248.317 316.717 C 249.152 317.552,250.393 318.466,251.075 318.748 C 251.758 319.031,252.690 319.610,253.146 320.036 C 254.027 320.857,266.741 320.584,272.400 319.623 C 283.013 317.820,291.672 314.731,296.554 311.008 C 298.493 309.529,298.447 309.451,291.300 302.075 C 289.705 300.429,288.400 298.928,288.400 298.741 C 288.400 298.553,288.228 298.400,288.018 298.400 C 287.570 298.400,285.600 296.500,285.600 296.068 C 285.600 295.905,285.105 295.476,284.500 295.114 C 283.281 294.384,280.582 291.911,280.349 291.310 C 280.267 291.098,277.410 288.620,274.000 285.803 C 270.590 282.986,267.618 280.482,267.396 280.240 C 266.739 279.524,263.875 277.370,262.866 276.833 C 261.880 276.308,260.493 275.196,258.959 273.700 C 258.452 273.205,257.861 272.800,257.647 272.800 C 257.432 272.800,257.019 272.569,256.729 272.288 C 256.438 272.006,254.940 270.988,253.400 270.027 C 251.860 269.065,250.540 268.126,250.467 267.939 C 250.393 267.753,250.172 267.600,249.974 267.600 C 249.776 267.600,248.438 266.880,247.000 266.000 C 245.562 265.120,244.224 264.400,244.026 264.400 C 243.828 264.400,243.600 264.199,243.518 263.954 C 243.430 263.689,241.907 264.315,239.785 265.487 C 194.652 290.415,141.508 269.826,126.431 221.570 C 126.024 220.269,125.874 220.157,124.748 220.322 C 124.068 220.422,123.387 220.302,123.235 220.056 C 122.938 219.577,102.730 219.171,93.900 219.468 M158.000 225.033 C 158.000 226.082,162.598 232.246,165.542 235.144 C 176.131 245.567,190.585 250.615,205.052 248.940 C 214.249 247.876,217.274 246.277,212.853 244.817 C 211.944 244.517,211.200 244.145,211.200 243.990 C 211.200 243.835,210.345 243.386,209.300 242.991 C 208.255 242.596,207.310 242.159,207.200 242.020 C 207.090 241.881,206.211 241.512,205.247 241.202 C 204.283 240.891,203.289 240.432,203.038 240.181 C 202.787 239.930,201.641 239.412,200.491 239.030 C 199.341 238.648,198.398 238.215,198.397 238.068 C 198.395 237.921,197.270 237.451,195.897 237.024 C 194.523 236.597,193.179 236.028,192.908 235.760 C 192.637 235.492,191.689 235.150,190.800 235.000 C 189.911 234.850,188.960 234.503,188.687 234.230 C 188.414 233.956,186.887 233.413,185.295 233.023 C 183.703 232.633,182.400 232.186,182.400 232.030 C 182.400 231.874,181.050 231.428,179.400 231.039 C 177.750 230.650,176.400 230.193,176.400 230.024 C 176.400 229.854,174.915 229.397,173.100 229.007 C 171.285 228.616,169.710 228.168,169.600 228.011 C 169.490 227.853,167.690 227.398,165.600 227.000 C 163.510 226.602,161.710 226.166,161.600 226.031 C 161.385 225.768,158.000 224.830,158.000 225.033 M46.000 227.106 C 44.350 227.445,42.910 227.849,42.800 228.004 C 42.690 228.159,41.205 228.594,39.500 228.970 C 37.795 229.347,36.400 229.789,36.400 229.954 C 36.400 230.119,35.050 230.572,33.400 230.961 C 31.750 231.350,30.400 231.800,30.400 231.961 C 30.400 232.122,29.050 232.572,27.400 232.961 C 25.750 233.350,24.400 233.806,24.400 233.975 C 24.400 234.143,23.230 234.598,21.800 234.985 C 20.370 235.372,19.200 235.804,19.200 235.944 C 19.200 236.085,18.120 236.545,16.800 236.967 C 15.480 237.389,14.400 237.864,14.400 238.024 C 14.400 238.183,13.320 238.637,12.000 239.032 C 10.680 239.428,9.600 239.888,9.600 240.055 C 9.600 240.222,8.610 240.671,7.400 241.053 C 6.190 241.434,5.200 241.875,5.200 242.033 C 5.200 242.191,4.303 242.642,3.206 243.037 C 0.025 244.180,0.192 242.103,0.261 279.800 C 0.321 312.099,0.631 321.913,1.650 323.747 C 1.928 324.247,1.933 324.627,1.664 324.896 C 1.281 325.279,1.466 326.375,1.986 326.800 C 2.120 326.910,2.560 328.980,2.964 331.400 C 3.367 333.820,3.828 335.890,3.987 336.000 C 4.147 336.110,4.603 337.550,5.000 339.200 C 5.397 340.850,5.870 342.298,6.051 342.417 C 6.232 342.537,6.430 343.077,6.490 343.617 C 6.551 344.158,6.744 344.706,6.920 344.836 C 7.188 345.033,7.437 346.139,7.572 347.724 C 7.588 347.902,7.765 347.945,7.967 347.821 C 8.169 347.696,8.633 348.495,8.999 349.597 C 9.365 350.699,9.794 351.600,9.953 351.600 C 10.112 351.600,10.566 352.500,10.961 353.600 C 11.357 354.700,11.802 355.600,11.951 355.600 C 12.099 355.600,12.576 356.408,13.010 357.396 C 13.445 358.384,13.922 359.194,14.071 359.196 C 14.428 359.201,15.600 361.568,15.600 362.285 C 15.600 362.594,15.778 362.737,15.996 362.602 C 16.214 362.468,16.694 362.989,17.062 363.762 C 17.431 364.534,17.882 365.073,18.066 364.959 C 18.250 364.846,18.421 364.988,18.447 365.276 C 18.473 365.564,18.505 365.890,18.517 366.000 C 18.574 366.498,21.998 369.744,21.999 369.300 C 22.000 369.025,21.685 368.482,21.300 368.094 C 17.868 364.632,10.666 352.758,9.202 348.147 C 8.932 347.296,8.479 346.228,8.195 345.774 C 6.141 342.487,6.284 342.183,12.400 336.793 C 16.866 332.857,17.424 332.404,17.804 332.402 C 18.026 332.401,18.432 332.040,18.707 331.600 C 18.982 331.160,19.469 330.800,19.789 330.800 C 20.110 330.800,20.565 330.440,20.800 330.000 C 21.035 329.560,21.482 329.200,21.791 329.200 C 22.101 329.200,22.590 328.885,22.877 328.500 C 23.165 328.115,24.030 327.449,24.800 327.020 C 25.570 326.591,26.549 325.916,26.975 325.520 C 27.402 325.124,27.978 324.800,28.256 324.800 C 28.533 324.800,28.904 324.573,29.080 324.296 C 29.256 324.019,30.120 323.434,31.000 322.996 C 31.880 322.558,32.744 321.975,32.920 321.700 C 33.096 321.425,33.501 321.200,33.820 321.200 C 34.139 321.200,34.736 320.864,35.146 320.454 C 35.557 320.043,36.727 319.389,37.746 318.999 C 38.766 318.610,39.600 318.171,39.600 318.025 C 39.600 317.878,40.500 317.434,41.600 317.039 C 42.700 316.643,43.600 316.193,43.600 316.039 C 43.600 315.884,44.500 315.434,45.600 315.039 C 46.700 314.643,47.602 314.203,47.603 314.060 C 47.605 313.917,48.730 313.451,50.103 313.024 C 51.477 312.597,52.821 312.028,53.092 311.760 C 53.363 311.492,54.311 311.150,55.200 311.000 C 56.089 310.850,57.047 310.495,57.331 310.212 C 57.614 309.929,58.465 309.568,59.223 309.410 C 62.785 308.668,63.742 306.461,61.642 303.835 C 60.742 302.709,57.268 293.176,55.944 288.200 C 53.154 277.718,52.304 269.076,51.598 244.031 C 51.037 224.149,51.633 225.948,46.000 227.106 M312.000 333.669 C 304.245 338.509,289.182 344.564,282.689 345.451 C 281.638 345.594,280.682 345.867,280.565 346.056 C 280.448 346.245,279.997 346.400,279.562 346.400 C 278.623 346.400,279.168 347.803,280.463 348.723 C 280.869 349.010,281.200 349.511,281.200 349.835 C 281.200 350.160,281.457 350.524,281.772 350.645 C 282.087 350.765,282.534 351.345,282.766 351.932 C 283.329 353.356,284.088 354.528,284.700 354.920 C 284.975 355.096,285.200 355.596,285.200 356.032 C 285.200 356.468,285.462 356.926,285.782 357.048 C 286.607 357.365,289.200 361.620,289.200 362.658 C 289.200 362.970,289.444 363.319,289.742 363.433 C 290.040 363.547,290.625 364.663,291.042 365.912 C 291.459 367.161,292.115 368.502,292.500 368.892 C 292.885 369.281,293.200 369.861,293.200 370.180 C 293.200 370.499,293.432 370.904,293.716 371.080 C 294.217 371.391,297.600 379.799,297.600 380.734 C 297.600 380.990,297.780 381.200,298.000 381.200 C 298.220 381.200,298.400 381.538,298.400 381.951 C 298.400 382.364,298.676 383.362,299.013 384.169 C 299.350 384.975,299.519 385.807,299.389 386.018 C 299.259 386.228,299.363 386.400,299.620 386.400 C 299.918 386.400,299.996 386.761,299.836 387.400 C 299.698 387.950,299.753 388.400,299.958 388.400 C 300.164 388.400,300.655 389.795,301.049 391.500 C 301.444 393.205,301.898 394.693,302.057 394.808 C 302.217 394.922,302.473 395.957,302.625 397.108 L 302.903 399.200 300.752 399.252 C 299.568 399.281,295.180 399.441,291.000 399.607 C 284.824 399.853,285.985 399.887,297.200 399.790 C 310.979 399.671,321.770 399.047,322.684 398.316 C 322.950 398.103,323.715 398.049,324.384 398.196 C 325.073 398.348,325.600 398.299,325.600 398.083 C 325.600 397.874,326.723 397.576,328.096 397.421 C 329.469 397.266,330.817 396.952,331.091 396.725 C 331.365 396.497,331.856 396.413,332.182 396.538 C 332.508 396.663,332.874 396.603,332.997 396.406 C 333.119 396.208,334.024 395.925,335.009 395.778 C 335.994 395.630,336.800 395.370,336.800 395.199 C 336.800 395.029,337.475 394.764,338.300 394.611 C 341.767 393.970,343.476 392.132,342.051 390.580 C 341.859 390.371,341.390 388.895,341.008 387.300 C 340.626 385.705,340.193 384.400,340.046 384.400 C 339.898 384.400,339.441 383.096,339.031 381.502 C 338.620 379.908,338.147 378.333,337.980 378.002 C 337.812 377.671,337.357 376.266,336.968 374.881 C 336.580 373.495,336.113 372.270,335.931 372.157 C 335.749 372.045,335.600 371.603,335.600 371.176 C 335.600 370.749,335.420 370.400,335.200 370.400 C 334.980 370.400,334.799 369.995,334.798 369.500 C 334.796 369.005,334.564 368.150,334.282 367.600 C 333.999 367.050,333.259 365.025,332.637 363.100 C 332.015 361.175,331.347 359.600,331.153 359.600 C 330.959 359.600,330.800 359.264,330.800 358.854 C 330.800 358.444,330.473 357.679,330.073 357.154 C 329.673 356.629,329.114 355.621,328.830 354.913 C 328.546 354.206,328.063 353.419,327.757 353.164 C 327.451 352.910,327.200 352.442,327.200 352.124 C 327.200 351.807,326.774 350.974,326.253 350.273 C 325.731 349.573,324.624 347.605,323.792 345.900 C 322.959 344.195,322.138 342.800,321.966 342.800 C 321.794 342.800,321.530 342.409,321.378 341.932 C 321.088 341.017,318.468 336.742,317.988 336.400 C 317.834 336.290,317.581 335.794,317.426 335.298 C 317.121 334.320,315.294 331.985,314.864 332.023 C 314.719 332.036,313.430 332.777,312.000 333.669 M22.769 370.742 C 23.301 371.736,28.405 376.778,29.396 377.288 C 29.838 377.516,28.670 376.086,26.800 374.111 C 23.334 370.451,22.030 369.360,22.769 370.742 M31.800 379.431 C 34.226 381.554,35.289 381.921,33.000 379.845 C 31.900 378.847,30.820 378.031,30.600 378.030 C 30.380 378.030,30.920 378.660,31.800 379.431 M35.264 382.002 C 35.371 382.331,35.941 382.835,36.530 383.122 C 37.118 383.409,37.600 383.814,37.600 384.022 C 37.600 384.230,37.811 384.400,38.069 384.400 C 38.326 384.400,38.866 384.698,39.269 385.062 C 39.671 385.426,39.994 385.561,39.987 385.362 C 39.981 385.163,39.486 384.651,38.887 384.225 C 38.289 383.799,37.185 382.990,36.434 382.427 C 35.555 381.769,35.138 381.618,35.264 382.002 M40.800 385.957 C 40.800 386.401,42.031 386.903,42.346 386.588 C 42.473 386.461,42.312 386.189,41.988 385.984 C 41.240 385.511,40.800 385.501,40.800 385.957 M44.400 387.890 C 44.400 388.065,44.760 388.432,45.200 388.707 C 45.643 388.984,46.000 389.033,46.000 388.817 C 46.000 388.603,45.640 388.235,45.200 388.000 C 44.760 387.765,44.400 387.715,44.400 387.890 M48.400 389.943 C 48.400 390.354,49.612 390.922,49.892 390.642 C 49.989 390.544,49.693 390.264,49.234 390.018 C 48.775 389.773,48.400 389.739,48.400 389.943 M63.200 396.000 C 63.200 396.220,63.470 396.400,63.800 396.400 C 64.130 396.400,64.400 396.220,64.400 396.000 C 64.400 395.780,64.130 395.600,63.800 395.600 C 63.470 395.600,63.200 395.780,63.200 396.000 M72.400 397.915 C 72.400 398.088,72.760 398.257,73.200 398.290 C 73.640 398.323,74.000 398.181,74.000 397.975 C 74.000 397.769,73.640 397.600,73.200 397.600 C 72.760 397.600,72.400 397.742,72.400 397.915 M79.700 399.076 C 80.085 399.176,80.715 399.176,81.100 399.076 C 81.485 398.975,81.170 398.893,80.400 398.893 C 79.630 398.893,79.315 398.975,79.700 399.076 M84.900 399.476 C 85.285 399.576,85.915 399.576,86.300 399.476 C 86.685 399.375,86.370 399.293,85.600 399.293 C 84.830 399.293,84.515 399.375,84.900 399.476 M92.912 399.895 C 93.964 399.977,95.584 399.976,96.512 399.892 C 97.440 399.808,96.580 399.741,94.600 399.742 C 92.620 399.743,91.860 399.812,92.912 399.895 " stroke="none" fill="#fc4d12" fill-rule="evenodd"></path><path id="path2" d="M85.400 0.260 C 79.619 0.758,71.767 1.729,71.234 2.013 C 70.885 2.198,68.890 2.659,66.800 3.037 C 64.710 3.415,62.910 3.831,62.800 3.962 C 62.690 4.093,61.348 4.520,59.817 4.911 C 58.286 5.302,56.936 5.760,56.817 5.930 C 56.698 6.100,55.475 6.573,54.100 6.983 C 52.725 7.392,51.600 7.861,51.600 8.026 C 51.600 8.191,50.610 8.637,49.400 9.018 C 48.190 9.398,47.200 9.840,47.200 10.000 C 47.200 10.160,46.390 10.601,45.400 10.979 C 44.410 11.357,43.600 11.812,43.600 11.990 C 43.600 12.168,42.880 12.601,42.000 12.953 C 41.120 13.305,40.400 13.733,40.400 13.902 C 40.400 14.072,39.680 14.523,38.800 14.904 C 37.920 15.286,37.200 15.749,37.200 15.935 C 37.200 16.120,36.720 16.490,36.134 16.757 C 35.548 17.024,34.693 17.588,34.234 18.010 C 33.775 18.432,32.140 19.822,30.600 21.099 C 26.194 24.752,23.399 27.683,18.064 34.248 C 17.550 34.882,16.936 35.805,16.700 36.300 C 16.464 36.795,16.129 37.200,15.955 37.200 C 15.780 37.200,15.323 37.875,14.940 38.700 C 14.556 39.525,14.063 40.322,13.845 40.471 C 13.428 40.755,12.612 42.192,11.158 45.200 C 10.679 46.190,10.133 47.060,9.944 47.133 C 9.755 47.207,9.600 47.439,9.600 47.650 C 9.600 47.861,9.063 49.182,8.407 50.585 C 7.751 51.989,6.993 53.961,6.724 54.969 C 6.454 55.976,6.111 56.800,5.960 56.800 C 5.809 56.800,5.372 58.105,4.988 59.700 C 4.605 61.295,4.155 62.780,3.989 63.000 C 3.620 63.490,2.400 69.332,2.400 70.609 C 2.400 71.118,2.245 71.593,2.057 71.667 C 0.434 72.297,-1.236 180.400,0.377 180.400 C 0.610 180.400,0.800 180.248,0.800 180.063 C 0.800 179.878,1.925 179.397,3.300 178.993 C 4.675 178.590,5.980 178.129,6.200 177.970 C 6.420 177.811,9.030 176.917,12.000 175.985 C 14.970 175.052,18.728 173.864,20.351 173.345 C 21.974 172.825,23.552 172.400,23.856 172.400 C 24.161 172.400,24.723 172.231,25.105 172.024 C 25.487 171.817,27.150 171.353,28.800 170.993 C 30.450 170.633,32.160 170.191,32.600 170.012 C 33.040 169.832,34.930 169.376,36.800 168.999 C 38.670 168.622,40.650 168.157,41.200 167.965 C 41.750 167.773,44.109 167.280,46.442 166.869 L 50.684 166.122 50.942 170.924 C 51.084 173.565,51.235 185.102,51.278 196.563 C 51.339 213.137,51.411 209.626,51.630 179.400 C 51.957 134.254,52.423 126.592,55.608 114.000 C 65.189 76.122,92.071 55.665,136.676 52.306 C 146.039 51.601,253.655 51.583,263.200 52.285 C 312.159 55.885,339.870 80.037,346.624 124.994 C 347.461 130.567,347.681 129.580,346.941 123.570 L 346.716 121.741 348.471 121.070 C 349.437 120.702,350.446 120.400,350.713 120.400 C 350.981 120.400,351.200 120.242,351.200 120.050 C 351.200 119.857,352.370 119.364,353.800 118.955 C 355.230 118.545,356.400 118.092,356.400 117.948 C 356.400 117.804,357.705 117.369,359.300 116.982 C 360.895 116.595,362.302 116.124,362.426 115.936 C 362.550 115.748,364.080 115.289,365.826 114.917 C 367.572 114.545,369.090 114.121,369.200 113.976 C 369.310 113.831,371.200 113.381,373.400 112.976 C 375.600 112.571,377.490 112.126,377.600 111.986 C 377.838 111.685,387.974 110.400,390.113 110.400 C 390.931 110.400,391.600 110.220,391.600 110.000 C 391.600 109.761,393.133 109.600,395.400 109.600 C 398.742 109.600,399.203 109.516,399.228 108.900 C 399.252 108.298,399.307 108.311,399.623 109.000 C 400.286 110.447,399.781 82.450,399.040 76.657 C 398.678 73.828,398.230 71.218,398.045 70.857 C 397.859 70.495,397.397 68.445,397.017 66.300 C 396.637 64.155,396.204 62.400,396.054 62.400 C 395.904 62.400,395.546 61.365,395.257 60.100 C 394.969 58.835,394.514 57.440,394.247 57.000 C 393.979 56.560,393.410 55.075,392.980 53.700 C 392.551 52.325,392.083 51.200,391.940 51.200 C 391.797 51.200,391.357 50.300,390.961 49.200 C 390.566 48.100,390.122 47.200,389.975 47.200 C 389.829 47.200,389.382 46.345,388.983 45.300 C 388.584 44.255,388.065 43.190,387.829 42.934 C 387.593 42.677,386.860 41.534,386.200 40.395 C 385.540 39.255,384.595 37.819,384.100 37.203 C 383.605 36.588,383.200 35.896,383.200 35.665 C 383.200 35.434,382.882 35.010,382.493 34.723 C 382.104 34.435,381.496 33.745,381.142 33.189 C 379.629 30.814,373.439 24.438,369.400 21.095 C 367.860 19.820,366.225 18.432,365.766 18.010 C 365.307 17.588,364.452 17.024,363.866 16.757 C 363.280 16.490,362.800 16.129,362.800 15.955 C 362.800 15.780,362.125 15.323,361.300 14.940 C 360.475 14.556,359.678 14.063,359.529 13.845 C 359.245 13.428,357.808 12.612,354.800 11.158 C 353.810 10.679,352.940 10.133,352.867 9.944 C 352.793 9.755,352.561 9.600,352.350 9.600 C 352.139 9.600,350.849 9.083,349.483 8.452 C 348.117 7.821,346.280 7.077,345.400 6.800 C 344.520 6.523,343.617 6.152,343.392 5.976 C 343.168 5.799,341.728 5.343,340.192 4.962 C 338.657 4.581,337.310 4.148,337.200 4.001 C 336.969 3.691,330.622 2.399,329.333 2.400 C 328.857 2.400,328.407 2.238,328.333 2.040 C 328.260 1.842,325.590 1.355,322.400 0.957 C 317.100 0.297,92.648 -0.363,85.400 0.260 M154.000 78.384 C 120.275 79.308,107.195 83.137,94.938 95.673 C 80.356 110.587,77.801 125.348,78.090 193.000 L 78.155 208.200 78.422 188.200 C 78.568 177.200,78.713 166.923,78.744 165.363 L 78.800 162.527 80.300 162.081 C 84.247 160.907,124.294 160.711,131.300 161.831 C 132.931 162.091,132.990 162.200,132.410 163.874 C 131.946 165.213,132.087 165.012,134.816 160.458 C 165.660 108.979,241.238 112.327,268.541 166.381 C 270.269 169.802,271.587 172.304,271.470 171.942 C 270.556 169.113,270.316 167.954,270.591 167.697 C 270.766 167.534,270.990 167.625,271.088 167.900 C 271.186 168.175,271.507 168.400,271.800 168.400 C 272.093 168.400,272.415 168.175,272.514 167.900 C 272.657 167.506,272.887 167.513,273.601 167.937 C 274.272 168.334,274.581 168.354,274.792 168.014 C 274.964 167.735,275.495 167.659,276.138 167.820 C 276.824 167.992,277.200 167.925,277.200 167.629 C 277.200 167.287,277.414 167.286,278.051 167.627 C 278.572 167.906,278.998 167.936,279.151 167.704 C 279.288 167.496,280.191 167.297,281.158 167.263 C 282.125 167.229,283.160 166.999,283.458 166.752 C 283.860 166.418,284.144 166.422,284.558 166.765 C 284.988 167.122,285.261 167.082,285.752 166.591 C 286.217 166.126,286.579 166.060,287.094 166.349 C 287.607 166.636,287.991 166.570,288.500 166.110 C 288.930 165.720,289.200 165.654,289.200 165.938 C 289.200 166.559,290.273 166.529,290.567 165.900 C 290.753 165.500,290.847 165.500,291.033 165.900 C 291.364 166.609,291.903 166.522,292.892 165.600 C 293.365 165.160,294.008 164.845,294.323 164.900 C 294.637 164.955,295.098 164.640,295.347 164.200 C 295.596 163.760,296.025 163.256,296.300 163.080 C 296.575 162.904,296.800 162.544,296.800 162.280 C 296.801 162.016,297.251 161.277,297.800 160.638 C 298.350 159.999,298.800 159.369,298.800 159.238 C 298.801 159.107,299.206 158.519,299.700 157.930 C 300.195 157.342,301.050 156.282,301.600 155.575 C 303.910 152.606,311.622 144.400,312.103 144.400 C 312.274 144.400,313.190 143.590,314.138 142.600 C 315.087 141.610,316.008 140.800,316.186 140.800 C 316.363 140.800,316.903 140.395,317.386 139.900 C 318.968 138.277,320.085 137.525,320.405 137.865 C 320.578 138.049,320.927 145.310,321.180 154.000 C 321.837 176.583,321.918 177.630,321.735 161.230 C 321.560 145.491,321.144 136.937,320.189 129.400 C 316.477 100.094,299.249 83.213,269.600 79.831 C 257.197 78.415,185.561 77.519,154.000 78.384 M283.742 103.433 C 291.740 105.492,297.200 112.466,297.200 120.624 C 297.200 136.848,277.425 144.535,266.463 132.572 C 254.639 119.668,266.846 99.082,283.742 103.433 M347.720 135.200 C 347.720 136.410,347.795 136.905,347.887 136.300 C 347.978 135.695,347.978 134.705,347.887 134.100 C 347.795 133.495,347.720 133.990,347.720 135.200 M348.332 152.600 C 348.430 160.300,348.575 166.675,348.655 166.767 C 348.901 167.049,348.714 147.661,348.426 143.000 C 348.276 140.580,348.234 144.900,348.332 152.600 M194.600 150.652 C 178.982 153.052,164.945 161.839,158.259 173.400 C 157.586 174.564,157.586 174.572,158.282 173.677 C 165.789 164.022,166.492 163.455,170.800 163.577 C 172.670 163.629,174.560 163.667,175.000 163.659 C 175.440 163.652,176.775 163.629,177.968 163.608 C 179.160 163.588,180.240 163.734,180.368 163.932 C 180.495 164.131,182.895 164.267,185.700 164.235 C 188.505 164.202,190.800 164.280,190.800 164.407 C 190.800 164.535,191.475 164.647,192.300 164.656 C 193.969 164.675,202.465 165.065,208.573 165.403 C 210.758 165.524,212.783 165.820,213.073 166.060 C 213.477 166.396,213.603 166.323,213.613 165.749 C 213.624 165.063,213.668 165.055,214.129 165.663 C 214.503 166.154,214.816 166.223,215.338 165.931 C 215.814 165.664,216.215 165.680,216.577 165.981 C 216.872 166.226,217.808 166.411,218.656 166.392 C 219.505 166.374,222.180 166.470,224.600 166.606 C 227.020 166.743,230.690 166.917,232.755 166.993 L 236.511 167.132 238.819 169.958 C 240.089 171.511,241.209 173.012,241.309 173.291 C 241.409 173.571,241.603 173.698,241.740 173.572 C 242.558 172.825,233.980 163.334,229.574 160.112 C 220.062 153.156,204.935 149.064,194.600 150.652 M130.810 166.977 C 129.702 169.562,129.824 169.811,131.046 167.461 C 131.601 166.394,131.957 165.424,131.838 165.304 C 131.718 165.185,131.256 165.937,130.810 166.977 M129.179 170.655 C 128.958 171.236,128.852 171.785,128.943 171.876 C 129.033 171.967,129.299 171.492,129.533 170.820 C 130.053 169.328,129.739 169.182,129.179 170.655 M348.990 200.200 C 348.990 216.480,349.039 223.082,349.100 214.870 C 349.160 206.659,349.160 193.339,349.100 185.270 C 349.039 177.202,348.990 183.920,348.990 200.200 M271.702 173.200 C 272.688 176.526,273.344 178.390,273.481 178.252 C 273.714 178.019,272.479 173.927,271.956 173.200 C 271.573 172.667,271.544 172.667,271.702 173.200 M242.820 175.639 C 243.280 176.540,243.754 177.180,243.874 177.060 C 244.089 176.844,242.496 174.000,242.159 174.000 C 242.063 174.000,242.360 174.737,242.820 175.639 M154.865 179.417 C 154.195 180.888,154.323 181.202,155.047 179.865 C 155.386 179.240,155.588 178.654,155.496 178.563 C 155.405 178.471,155.121 178.856,154.865 179.417 M244.855 179.587 C 245.088 180.255,245.434 180.897,245.623 181.014 C 245.813 181.132,245.777 180.681,245.545 180.013 C 245.312 179.345,244.966 178.703,244.777 178.586 C 244.587 178.468,244.623 178.919,244.855 179.587 M274.286 181.800 C 274.417 182.680,274.661 183.850,274.828 184.400 L 275.131 185.400 275.135 184.400 C 275.137 183.850,274.893 182.680,274.593 181.800 L 274.048 180.200 274.286 181.800 M246.830 184.400 C 246.833 184.730,247.091 185.540,247.402 186.200 L 247.967 187.400 247.730 186.200 C 247.432 184.698,246.821 183.475,246.830 184.400 M248.880 192.600 C 248.868 193.260,249.003 194.610,249.180 195.600 C 249.416 196.928,249.505 197.085,249.520 196.200 C 249.532 195.540,249.397 194.190,249.220 193.200 C 248.984 191.872,248.895 191.715,248.880 192.600 M276.101 193.400 C 276.105 194.280,276.187 194.593,276.283 194.095 C 276.379 193.598,276.375 192.878,276.275 192.495 C 276.175 192.113,276.096 192.520,276.101 193.400 M276.551 199.600 C 276.551 202.130,276.616 203.165,276.696 201.900 C 276.775 200.635,276.775 198.565,276.696 197.300 C 276.616 196.035,276.551 197.070,276.551 199.600 M123.701 197.000 C 123.705 197.880,123.787 198.193,123.883 197.695 C 123.979 197.198,123.975 196.478,123.875 196.095 C 123.775 195.713,123.696 196.120,123.701 197.000 M150.501 197.400 C 150.505 198.280,150.587 198.593,150.683 198.095 C 150.779 197.598,150.775 196.878,150.675 196.495 C 150.575 196.113,150.496 196.520,150.501 197.400 M123.693 202.800 C 123.693 203.570,123.775 203.885,123.876 203.500 C 123.976 203.115,123.976 202.485,123.876 202.100 C 123.775 201.715,123.693 202.030,123.693 202.800 M150.493 202.800 C 150.493 203.570,150.575 203.885,150.676 203.500 C 150.776 203.115,150.776 202.485,150.676 202.100 C 150.575 201.715,150.493 202.030,150.493 202.800 M249.293 204.400 C 249.293 205.170,249.375 205.485,249.476 205.100 C 249.576 204.715,249.576 204.085,249.476 203.700 C 249.375 203.315,249.293 203.630,249.293 204.400 M276.093 206.400 C 276.093 207.170,276.175 207.485,276.276 207.100 C 276.376 206.715,276.376 206.085,276.276 205.700 C 276.175 205.315,276.093 205.630,276.093 206.400 M321.764 235.800 C 321.763 239.540,321.823 241.124,321.897 239.320 C 321.971 237.515,321.972 234.455,321.898 232.520 C 321.825 230.584,321.764 232.060,321.764 235.800 M348.572 242.200 C 348.572 247.260,348.629 249.275,348.699 246.677 C 348.769 244.080,348.768 239.940,348.698 237.477 C 348.628 235.015,348.571 237.140,348.572 242.200 M321.324 253.400 C 321.326 254.720,321.401 255.212,321.490 254.493 C 321.579 253.774,321.577 252.694,321.486 252.093 C 321.395 251.492,321.322 252.080,321.324 253.400 M348.124 255.400 C 348.126 256.720,348.201 257.212,348.290 256.493 C 348.379 255.774,348.377 254.694,348.286 254.093 C 348.195 253.492,348.122 254.080,348.124 255.400 M320.931 260.200 C 320.933 261.740,321.005 262.321,321.092 261.491 C 321.179 260.661,321.177 259.401,321.089 258.691 C 321.000 257.981,320.929 258.660,320.931 260.200 M396.923 262.917 C 395.515 263.145,394.908 263.416,395.038 263.756 C 395.144 264.032,394.788 264.459,394.247 264.706 C 393.526 265.034,393.320 265.374,393.478 265.977 C 393.598 266.434,393.500 266.800,393.259 266.800 C 393.020 266.800,392.929 267.070,393.055 267.400 C 393.183 267.732,393.067 268.000,392.796 268.000 C 392.504 268.000,392.391 268.322,392.516 268.800 C 392.652 269.320,392.528 269.600,392.163 269.600 C 391.618 269.600,391.435 270.062,391.570 271.100 C 391.606 271.375,391.345 271.600,390.991 271.600 C 390.528 271.600,390.418 271.826,390.600 272.400 C 390.789 272.995,390.667 273.208,390.127 273.232 C 389.707 273.250,389.611 273.348,389.900 273.465 C 390.616 273.754,390.517 274.400,389.757 274.400 C 389.276 274.400,389.175 274.645,389.356 275.367 C 389.508 275.971,389.411 276.397,389.099 276.502 C 388.711 276.633,388.722 276.817,389.149 277.335 C 389.622 277.908,389.607 278.000,389.035 278.000 C 388.496 278.000,388.452 278.150,388.800 278.800 C 389.163 279.478,389.104 279.600,388.414 279.600 C 387.966 279.600,387.600 279.780,387.600 280.000 C 387.600 280.220,387.825 280.403,388.100 280.406 C 388.436 280.410,388.406 280.535,388.007 280.787 C 387.617 281.034,387.399 281.885,387.368 283.281 C 387.288 286.914,386.785 289.196,386.055 289.232 C 385.640 289.252,385.583 289.337,385.900 289.465 C 386.175 289.576,386.400 289.922,386.400 290.233 C 386.400 290.545,386.175 290.803,385.900 290.806 C 385.553 290.810,385.576 290.923,385.974 291.176 C 386.433 291.466,386.450 291.658,386.058 292.131 C 385.668 292.600,385.673 292.765,386.083 292.931 C 386.499 293.098,386.494 293.213,386.059 293.519 C 385.637 293.814,385.618 294.086,385.973 294.749 C 386.349 295.452,386.317 295.600,385.787 295.600 C 385.337 295.600,385.214 295.838,385.373 296.400 C 385.498 296.840,385.702 297.560,385.827 298.000 C 385.952 298.440,385.885 298.800,385.679 298.800 C 385.473 298.800,385.368 299.340,385.445 300.000 C 385.522 300.660,385.450 301.200,385.285 301.200 C 385.121 301.200,385.037 301.875,385.100 302.700 C 385.207 304.116,385.218 308.368,385.119 309.900 C 385.094 310.285,385.191 311.275,385.334 312.100 C 385.488 312.983,385.436 313.600,385.207 313.600 C 384.839 313.600,384.872 315.558,385.396 324.780 C 385.534 327.205,385.448 328.249,385.094 328.474 C 384.746 328.695,384.808 328.790,385.300 328.794 C 385.685 328.797,386.000 328.980,386.000 329.200 C 386.000 329.420,385.865 329.600,385.700 329.600 C 385.535 329.600,385.400 332.210,385.400 335.400 C 385.400 339.773,385.523 341.200,385.900 341.200 C 386.175 341.200,386.400 341.470,386.400 341.800 C 386.400 342.130,386.175 342.403,385.900 342.406 C 385.561 342.410,385.593 342.549,386.000 342.837 C 386.454 343.158,386.478 343.310,386.098 343.465 C 385.821 343.577,385.720 343.870,385.872 344.116 C 386.336 344.867,386.419 346.800,385.987 346.800 C 385.529 346.800,385.628 350.075,386.097 350.422 C 386.261 350.545,386.398 351.085,386.401 351.622 C 386.420 355.879,386.323 357.200,385.987 357.200 C 385.774 357.200,385.600 357.453,385.600 357.762 C 385.600 358.390,383.048 363.053,382.168 364.031 C 381.856 364.379,381.600 364.846,381.600 365.070 C 381.600 365.293,381.240 365.802,380.800 366.200 C 380.360 366.598,380.000 367.061,380.000 367.228 C 380.000 367.545,379.403 368.225,374.784 373.171 C 373.257 374.805,372.073 376.206,372.151 376.284 C 372.451 376.585,379.048 369.480,380.679 367.100 C 381.244 366.275,381.892 365.600,382.120 365.600 C 382.347 365.600,382.428 365.495,382.300 365.367 C 382.172 365.238,382.367 364.801,382.733 364.395 C 383.846 363.163,384.207 362.659,385.020 361.200 C 385.449 360.430,385.892 359.710,386.004 359.600 C 386.499 359.114,389.200 354.439,389.200 354.068 C 389.200 353.842,389.425 353.419,389.700 353.129 C 390.296 352.498,392.706 347.172,393.276 345.226 C 393.497 344.470,393.911 343.480,394.194 343.026 C 394.478 342.572,394.936 341.210,395.213 340.000 C 395.490 338.790,395.840 337.710,395.992 337.600 C 396.143 337.490,396.574 335.780,396.950 333.800 C 397.325 331.820,397.798 329.840,398.001 329.400 C 399.528 326.088,401.100 263.600,399.657 263.600 C 399.438 263.600,399.200 263.371,399.129 263.090 C 399.031 262.704,398.497 262.662,396.923 262.917 M347.701 264.200 C 347.705 265.080,347.787 265.393,347.883 264.895 C 347.979 264.398,347.975 263.678,347.875 263.295 C 347.775 262.913,347.696 263.320,347.701 264.200 M346.893 273.200 C 346.893 273.970,346.975 274.285,347.076 273.900 C 347.176 273.515,347.176 272.885,347.076 272.500 C 346.975 272.115,346.893 272.430,346.893 273.200 M346.493 276.000 C 346.493 276.770,346.575 277.085,346.676 276.700 C 346.776 276.315,346.776 275.685,346.676 275.300 C 346.575 274.915,346.493 275.230,346.493 276.000 " stroke="none" fill="#f304c6" fill-rule="evenodd"></path><path id="path3" d="M319.348 138.107 C 319.099 138.321,318.348 139.014,317.678 139.648 C 317.009 140.281,316.327 140.800,316.162 140.800 C 315.998 140.800,315.087 141.610,314.138 142.600 C 313.190 143.590,312.274 144.400,312.103 144.400 C 311.622 144.400,303.910 152.606,301.600 155.575 C 301.050 156.282,300.195 157.342,299.700 157.930 C 299.206 158.519,298.801 159.107,298.800 159.238 C 298.800 159.369,298.350 159.999,297.800 160.638 C 297.251 161.277,296.801 162.016,296.800 162.280 C 296.800 162.544,296.575 162.904,296.300 163.080 C 296.025 163.256,295.596 163.760,295.347 164.200 C 295.098 164.640,294.637 164.955,294.323 164.900 C 294.008 164.845,293.365 165.160,292.892 165.600 C 291.903 166.522,291.364 166.609,291.033 165.900 C 290.847 165.500,290.753 165.500,290.567 165.900 C 290.273 166.529,289.200 166.559,289.200 165.938 C 289.200 165.654,288.930 165.720,288.500 166.110 C 287.991 166.570,287.607 166.636,287.094 166.349 C 286.579 166.060,286.217 166.126,285.752 166.591 C 285.261 167.082,284.988 167.122,284.558 166.765 C 284.144 166.422,283.860 166.418,283.458 166.752 C 283.160 166.999,282.125 167.229,281.158 167.263 C 280.191 167.297,279.288 167.496,279.151 167.704 C 278.998 167.936,278.572 167.906,278.051 167.627 C 277.414 167.286,277.200 167.287,277.200 167.629 C 277.200 167.925,276.824 167.992,276.138 167.820 C 275.495 167.659,274.964 167.735,274.792 168.014 C 274.581 168.354,274.272 168.334,273.601 167.937 C 272.887 167.513,272.657 167.506,272.514 167.900 C 272.415 168.175,272.093 168.400,271.800 168.400 C 271.507 168.400,271.186 168.175,271.088 167.900 C 270.990 167.625,270.760 167.540,270.577 167.711 C 270.394 167.882,270.659 169.232,271.165 170.711 C 276.284 185.649,277.596 195.384,276.181 207.919 C 273.619 230.615,261.441 250.784,242.800 263.204 C 239.487 265.412,238.832 266.055,241.379 264.603 C 242.663 263.870,243.412 263.636,243.512 263.937 C 243.597 264.192,243.828 264.400,244.026 264.400 C 244.224 264.400,245.562 265.120,247.000 266.000 C 248.438 266.880,249.776 267.600,249.974 267.600 C 250.172 267.600,250.393 267.753,250.467 267.939 C 250.540 268.126,251.860 269.065,253.400 270.027 C 254.940 270.988,256.438 272.006,256.729 272.288 C 257.019 272.569,257.432 272.800,257.647 272.800 C 257.861 272.800,258.452 273.205,258.959 273.700 C 260.493 275.196,261.880 276.308,262.866 276.833 C 263.875 277.370,266.739 279.524,267.396 280.240 C 267.618 280.482,270.590 282.986,274.000 285.803 C 277.410 288.620,280.267 291.098,280.349 291.310 C 280.582 291.911,283.281 294.384,284.500 295.114 C 285.105 295.476,285.600 295.905,285.600 296.068 C 285.600 296.500,287.570 298.400,288.018 298.400 C 288.228 298.400,288.400 298.553,288.400 298.741 C 288.400 298.928,289.705 300.437,291.300 302.093 C 294.024 304.921,295.517 306.550,297.393 308.742 L 298.186 309.669 296.793 310.868 C 295.026 312.390,295.955 311.920,298.800 309.854 C 308.704 302.663,315.117 292.580,318.679 278.600 L 319.800 274.200 319.906 219.400 C 320.039 150.664,319.950 137.591,319.348 138.107 M91.800 161.246 C 86.520 161.423,81.455 161.773,80.544 162.024 L 78.888 162.479 78.652 172.940 C 78.187 193.477,78.020 226.206,78.383 225.400 C 78.582 224.960,78.756 223.772,78.772 222.759 L 78.800 220.919 82.100 220.662 C 83.915 220.520,86.240 220.404,87.267 220.402 C 88.386 220.401,89.199 220.203,89.297 219.908 C 89.553 219.142,122.697 219.186,123.171 219.953 C 123.387 220.302,123.963 220.437,124.746 220.323 C 125.781 220.171,126.047 220.308,126.395 221.171 L 126.809 222.200 126.596 221.200 C 126.478 220.650,125.937 218.181,125.393 215.714 C 122.988 204.811,123.156 192.382,125.856 181.440 C 127.337 175.438,128.869 171.185,131.641 165.368 C 133.507 161.453,134.446 161.749,118.400 161.202 C 105.949 160.777,105.757 160.777,91.800 161.246 M168.310 163.482 C 165.602 163.902,158.646 172.235,155.535 178.787 C 148.377 193.856,149.304 212.491,157.877 225.893 C 159.385 228.250,160.146 228.791,158.840 226.577 C 158.378 225.795,158.000 225.100,158.000 225.033 C 158.000 224.830,161.385 225.768,161.600 226.031 C 161.710 226.166,163.510 226.602,165.600 227.000 C 167.690 227.398,169.490 227.853,169.600 228.011 C 169.710 228.168,171.285 228.616,173.100 229.007 C 174.915 229.397,176.400 229.854,176.400 230.024 C 176.400 230.193,177.750 230.650,179.400 231.039 C 181.050 231.428,182.400 231.874,182.400 232.030 C 182.400 232.186,183.703 232.633,185.295 233.023 C 186.887 233.413,188.414 233.956,188.687 234.230 C 188.960 234.503,189.911 234.850,190.800 235.000 C 191.689 235.150,192.637 235.492,192.908 235.760 C 193.179 236.028,194.523 236.597,195.897 237.024 C 197.270 237.451,198.395 237.921,198.397 238.068 C 198.398 238.215,199.341 238.648,200.491 239.030 C 201.641 239.412,202.787 239.930,203.038 240.181 C 203.289 240.432,204.283 240.891,205.247 241.202 C 206.211 241.512,207.090 241.881,207.200 242.020 C 207.310 242.159,208.255 242.596,209.300 242.991 C 210.345 243.386,211.200 243.829,211.200 243.975 C 211.200 244.122,212.086 244.560,213.168 244.950 C 215.808 245.899,215.965 246.537,213.706 247.141 C 212.708 247.407,212.002 247.736,212.137 247.870 C 212.513 248.246,217.396 246.524,221.400 244.604 C 246.428 232.602,256.668 202.202,243.933 177.709 C 242.853 175.632,241.797 173.723,241.588 173.466 C 241.379 173.210,240.151 171.680,238.859 170.066 L 236.511 167.132 232.755 166.993 C 230.690 166.917,227.020 166.743,224.600 166.606 C 222.180 166.470,219.505 166.374,218.656 166.392 C 217.808 166.411,216.872 166.226,216.577 165.981 C 216.215 165.680,215.814 165.664,215.338 165.931 C 214.816 166.223,214.503 166.154,214.129 165.663 C 213.668 165.055,213.624 165.063,213.613 165.749 C 213.603 166.323,213.477 166.396,213.073 166.060 C 212.783 165.820,210.758 165.524,208.573 165.403 C 202.465 165.065,193.969 164.675,192.300 164.656 C 191.475 164.647,190.800 164.535,190.800 164.407 C 190.800 164.280,188.505 164.202,185.700 164.235 C 182.895 164.267,180.495 164.131,180.368 163.932 C 180.240 163.734,179.070 163.590,177.768 163.612 C 174.426 163.669,171.568 163.605,170.400 163.448 C 169.850 163.374,168.909 163.389,168.310 163.482 M46.000 167.026 C 43.470 167.516,40.140 168.215,38.600 168.579 C 37.060 168.944,35.170 169.347,34.400 169.476 C 33.630 169.605,32.820 169.836,32.600 169.988 C 32.380 170.140,30.670 170.595,28.800 170.997 C 26.930 171.400,25.229 171.880,25.020 172.065 C 24.811 172.249,24.339 172.400,23.971 172.400 C 23.603 172.400,21.974 172.826,20.351 173.347 C 18.728 173.868,15.240 174.965,12.600 175.784 C 9.960 176.603,7.260 177.510,6.600 177.801 C 5.940 178.092,4.414 178.644,3.209 179.027 C 2.004 179.411,0.795 179.948,0.522 180.221 C 0.135 180.608,0.035 188.265,0.065 215.258 C 0.086 234.256,0.238 248.720,0.402 247.400 C 0.817 244.076,0.967 243.842,3.214 243.034 C 4.307 242.641,5.200 242.191,5.200 242.033 C 5.200 241.875,6.190 241.434,7.400 241.053 C 8.610 240.671,9.600 240.222,9.600 240.055 C 9.600 239.888,10.680 239.428,12.000 239.032 C 13.320 238.637,14.400 238.183,14.400 238.024 C 14.400 237.864,15.480 237.389,16.800 236.967 C 18.120 236.545,19.200 236.085,19.200 235.944 C 19.200 235.804,20.370 235.372,21.800 234.985 C 23.230 234.598,24.400 234.143,24.400 233.975 C 24.400 233.806,25.750 233.350,27.400 232.961 C 29.050 232.572,30.400 232.122,30.400 231.961 C 30.400 231.800,31.750 231.350,33.400 230.961 C 35.050 230.572,36.400 230.119,36.400 229.954 C 36.400 229.789,37.795 229.347,39.500 228.970 C 41.205 228.594,42.690 228.160,42.800 228.005 C 43.087 227.602,50.380 226.247,50.675 226.541 C 50.810 226.677,51.043 228.815,51.193 231.294 C 51.342 233.772,51.385 222.030,51.287 205.200 C 51.189 188.370,50.995 172.695,50.855 170.368 L 50.600 166.135 46.000 167.026 M126.826 222.800 C 126.827 223.130,127.099 223.850,127.431 224.400 L 128.033 225.400 127.768 224.400 C 127.384 222.948,126.824 221.997,126.826 222.800 M159.964 229.133 C 160.180 229.536,160.674 230.121,161.063 230.433 C 161.564 230.835,161.504 230.622,160.857 229.700 C 159.869 228.291,159.331 227.949,159.964 229.133 M205.300 249.076 C 205.685 249.176,206.315 249.176,206.700 249.076 C 207.085 248.975,206.770 248.893,206.000 248.893 C 205.230 248.893,204.915 248.975,205.300 249.076 M196.700 249.482 C 197.195 249.578,198.005 249.578,198.500 249.482 C 198.995 249.387,198.590 249.309,197.600 249.309 C 196.610 249.309,196.205 249.387,196.700 249.482 M201.500 249.482 C 201.995 249.578,202.805 249.578,203.300 249.482 C 203.795 249.387,203.390 249.309,202.400 249.309 C 201.410 249.309,201.005 249.387,201.500 249.482 M0.163 306.000 C 0.163 309.630,0.223 311.115,0.298 309.300 C 0.372 307.485,0.372 304.515,0.298 302.700 C 0.223 300.885,0.163 302.370,0.163 306.000 M0.509 316.400 C 0.509 317.390,0.587 317.795,0.682 317.300 C 0.778 316.805,0.778 315.995,0.682 315.500 C 0.587 315.005,0.509 315.410,0.509 316.400 " stroke="none" fill="#fc055c" fill-rule="evenodd"></path><path id="path4" d="M147.000 51.860 C 111.729 53.099,92.942 59.703,75.934 76.844 C 61.603 91.286,54.519 108.875,52.348 135.400 C 51.720 143.075,51.411 239.204,51.967 254.000 C 53.113 284.506,58.308 302.064,70.695 317.300 L 72.891 320.000 100.745 319.940 C 116.065 319.907,128.060 319.805,127.400 319.713 C 99.903 315.887,83.132 298.081,79.823 269.200 C 77.212 246.399,77.514 142.844,80.240 126.800 C 84.703 100.524,99.973 85.016,125.920 80.405 C 142.405 77.476,245.356 77.064,269.600 79.831 C 297.750 83.042,315.291 99.059,319.724 125.600 C 319.816 126.150,319.914 114.450,319.942 99.600 L 319.993 72.600 317.551 70.652 C 304.078 59.908,287.379 54.155,264.400 52.343 C 259.469 51.954,156.397 51.530,147.000 51.860 M274.892 103.465 C 264.990 105.810,259.033 117.708,262.967 127.280 C 269.238 142.536,291.542 141.721,296.410 126.058 C 300.577 112.649,288.712 100.191,274.892 103.465 M192.598 124.032 C 140.757 128.671,108.558 185.310,131.024 232.342 C 158.666 290.211,240.465 290.840,268.582 233.400 C 294.776 179.889,252.261 118.694,192.598 124.032 M211.200 151.745 C 242.812 159.276,258.928 194.094,244.100 222.824 C 229.035 252.015,189.607 258.513,165.947 235.705 C 135.512 206.366,152.080 157.186,194.600 150.652 C 197.831 150.156,207.088 150.765,211.200 151.745 M319.600 274.518 C 319.600 275.761,317.766 282.794,316.606 286.000 C 309.885 304.577,294.716 316.257,272.800 319.732 C 272.250 319.820,282.645 319.916,295.900 319.946 L 320.000 320.000 320.000 296.800 C 320.000 284.040,319.910 273.600,319.800 273.600 C 319.690 273.600,319.600 274.013,319.600 274.518 " stroke="none" fill="#fbfbfb" fill-rule="evenodd"></path></g></svg>